<mxfile host="app.diagrams.net" agent="Mozilla/5.0 (X11; Linux x86_64; rv:135.0) Gecko/20100101 Firefox/135.0" version="26.1.1">
  <diagram name="Page-1" id="tYWkpFjugVyIhqSa52aw">
    <mxGraphModel dx="1434" dy="749" grid="1" gridSize="10" guides="1" tooltips="1" connect="1" arrows="1" fold="1" page="1" pageScale="1" pageWidth="850" pageHeight="1100" math="0" shadow="0">
      <root>
        <mxCell id="0" />
        <mxCell id="1" parent="0" />
        <mxCell id="ZivhqzZswGJpU1-0bC7G-1" value="" style="swimlane;startSize=0;dashed=1;" vertex="1" parent="1">
          <mxGeometry x="160" y="80" width="530" height="680" as="geometry" />
        </mxCell>
        <mxCell id="ZivhqzZswGJpU1-0bC7G-2" value="" style="sketch=0;points=[[0,0,0],[0.25,0,0],[0.5,0,0],[0.75,0,0],[1,0,0],[0,1,0],[0.25,1,0],[0.5,1,0],[0.75,1,0],[1,1,0],[0,0.25,0],[0,0.5,0],[0,0.75,0],[1,0.25,0],[1,0.5,0],[1,0.75,0]];outlineConnect=0;fontColor=#232F3E;fillColor=#8C4FFF;strokeColor=#ffffff;dashed=0;verticalLabelPosition=bottom;verticalAlign=top;align=center;html=1;fontSize=12;fontStyle=0;aspect=fixed;shape=mxgraph.aws4.resourceIcon;resIcon=mxgraph.aws4.transit_gateway;" vertex="1" parent="ZivhqzZswGJpU1-0bC7G-1">
          <mxGeometry width="40" height="40" as="geometry" />
        </mxCell>
        <mxCell id="ZivhqzZswGJpU1-0bC7G-3" style="edgeStyle=orthogonalEdgeStyle;rounded=0;orthogonalLoop=1;jettySize=auto;html=1;curved=1;fillColor=#fff2cc;strokeColor=#d6b656;" edge="1" parent="ZivhqzZswGJpU1-0bC7G-1" source="ZivhqzZswGJpU1-0bC7G-6" target="ZivhqzZswGJpU1-0bC7G-18">
          <mxGeometry relative="1" as="geometry">
            <Array as="points">
              <mxPoint x="150" y="548" />
              <mxPoint x="150" y="398" />
            </Array>
          </mxGeometry>
        </mxCell>
        <mxCell id="ZivhqzZswGJpU1-0bC7G-4" style="edgeStyle=orthogonalEdgeStyle;rounded=0;orthogonalLoop=1;jettySize=auto;html=1;curved=1;fillColor=#fff2cc;strokeColor=#d6b656;" edge="1" parent="ZivhqzZswGJpU1-0bC7G-1" source="ZivhqzZswGJpU1-0bC7G-6" target="ZivhqzZswGJpU1-0bC7G-16">
          <mxGeometry relative="1" as="geometry">
            <Array as="points">
              <mxPoint x="160" y="548" />
              <mxPoint x="160" y="259" />
            </Array>
          </mxGeometry>
        </mxCell>
        <mxCell id="ZivhqzZswGJpU1-0bC7G-5" style="edgeStyle=orthogonalEdgeStyle;rounded=0;orthogonalLoop=1;jettySize=auto;html=1;curved=1;fillColor=#fff2cc;strokeColor=#d6b656;" edge="1" parent="ZivhqzZswGJpU1-0bC7G-1" source="ZivhqzZswGJpU1-0bC7G-6" target="ZivhqzZswGJpU1-0bC7G-14">
          <mxGeometry relative="1" as="geometry">
            <Array as="points">
              <mxPoint x="170" y="548" />
              <mxPoint x="170" y="119" />
            </Array>
          </mxGeometry>
        </mxCell>
        <mxCell id="ZivhqzZswGJpU1-0bC7G-6" value="&lt;div&gt;Route table&lt;/div&gt;&lt;div&gt;(firewall to spoke)&lt;/div&gt;" style="sketch=0;outlineConnect=0;fontColor=#232F3E;gradientColor=none;fillColor=#8C4FFF;strokeColor=none;dashed=0;verticalLabelPosition=bottom;verticalAlign=top;align=center;html=1;fontSize=12;fontStyle=0;aspect=fixed;pointerEvents=1;shape=mxgraph.aws4.route_table;" vertex="1" parent="ZivhqzZswGJpU1-0bC7G-1">
          <mxGeometry x="200" y="510" width="78" height="76" as="geometry" />
        </mxCell>
        <mxCell id="ZivhqzZswGJpU1-0bC7G-7" style="edgeStyle=orthogonalEdgeStyle;rounded=0;orthogonalLoop=1;jettySize=auto;html=1;curved=1;strokeColor=#b85450;fillColor=#f8cecc;" edge="1" parent="ZivhqzZswGJpU1-0bC7G-1" source="ZivhqzZswGJpU1-0bC7G-8" target="ZivhqzZswGJpU1-0bC7G-20">
          <mxGeometry relative="1" as="geometry">
            <Array as="points">
              <mxPoint x="350" y="119" />
              <mxPoint x="350" y="259" />
            </Array>
          </mxGeometry>
        </mxCell>
        <mxCell id="ZivhqzZswGJpU1-0bC7G-8" value="&lt;div&gt;Route table&lt;/div&gt;&lt;div&gt;(spoke to firewall)&lt;/div&gt;" style="sketch=0;outlineConnect=0;fontColor=#232F3E;gradientColor=none;fillColor=#8C4FFF;strokeColor=none;dashed=0;verticalLabelPosition=bottom;verticalAlign=top;align=center;html=1;fontSize=12;fontStyle=0;aspect=fixed;pointerEvents=1;shape=mxgraph.aws4.route_table;" vertex="1" parent="ZivhqzZswGJpU1-0bC7G-1">
          <mxGeometry x="200" y="81" width="78" height="76" as="geometry" />
        </mxCell>
        <mxCell id="ZivhqzZswGJpU1-0bC7G-9" style="edgeStyle=orthogonalEdgeStyle;rounded=0;orthogonalLoop=1;jettySize=auto;html=1;curved=1;fillColor=#f8cecc;strokeColor=#b85450;" edge="1" parent="ZivhqzZswGJpU1-0bC7G-1" source="ZivhqzZswGJpU1-0bC7G-10" target="ZivhqzZswGJpU1-0bC7G-20">
          <mxGeometry relative="1" as="geometry">
            <Array as="points">
              <mxPoint x="350" y="398" />
              <mxPoint x="350" y="259" />
            </Array>
          </mxGeometry>
        </mxCell>
        <mxCell id="ZivhqzZswGJpU1-0bC7G-10" value="&lt;div&gt;Route table&lt;/div&gt;&lt;div&gt;(spoke to firewall)&lt;/div&gt;" style="sketch=0;outlineConnect=0;fontColor=#232F3E;gradientColor=none;fillColor=#8C4FFF;strokeColor=none;dashed=0;verticalLabelPosition=bottom;verticalAlign=top;align=center;html=1;fontSize=12;fontStyle=0;aspect=fixed;pointerEvents=1;shape=mxgraph.aws4.route_table;" vertex="1" parent="ZivhqzZswGJpU1-0bC7G-1">
          <mxGeometry x="200" y="360" width="78" height="76" as="geometry" />
        </mxCell>
        <mxCell id="ZivhqzZswGJpU1-0bC7G-11" style="edgeStyle=orthogonalEdgeStyle;rounded=0;orthogonalLoop=1;jettySize=auto;html=1;curved=1;fillColor=#f8cecc;strokeColor=#b85450;" edge="1" parent="ZivhqzZswGJpU1-0bC7G-1" source="ZivhqzZswGJpU1-0bC7G-12" target="ZivhqzZswGJpU1-0bC7G-20">
          <mxGeometry relative="1" as="geometry" />
        </mxCell>
        <mxCell id="ZivhqzZswGJpU1-0bC7G-12" value="&lt;div&gt;Route table&lt;/div&gt;&lt;div&gt;(spoke to firewall)&lt;/div&gt;" style="sketch=0;outlineConnect=0;fontColor=#232F3E;gradientColor=none;fillColor=#8C4FFF;strokeColor=none;dashed=0;verticalLabelPosition=bottom;verticalAlign=top;align=center;html=1;fontSize=12;fontStyle=0;aspect=fixed;pointerEvents=1;shape=mxgraph.aws4.route_table;" vertex="1" parent="ZivhqzZswGJpU1-0bC7G-1">
          <mxGeometry x="200" y="220" width="78" height="76" as="geometry" />
        </mxCell>
        <mxCell id="ZivhqzZswGJpU1-0bC7G-13" style="edgeStyle=orthogonalEdgeStyle;rounded=0;orthogonalLoop=1;jettySize=auto;html=1;fontColor=#EA6B66;strokeColor=#b85450;fillColor=#f8cecc;" edge="1" parent="ZivhqzZswGJpU1-0bC7G-1" source="ZivhqzZswGJpU1-0bC7G-14" target="ZivhqzZswGJpU1-0bC7G-8">
          <mxGeometry relative="1" as="geometry" />
        </mxCell>
        <mxCell id="ZivhqzZswGJpU1-0bC7G-14" value="&lt;div&gt;Spoke&lt;/div&gt;&lt;div&gt;transit gateway&lt;/div&gt;&lt;div&gt;attachment&lt;/div&gt;" style="sketch=0;outlineConnect=0;fontColor=#232F3E;gradientColor=none;fillColor=#8C4FFF;strokeColor=none;dashed=0;verticalLabelPosition=bottom;verticalAlign=top;align=center;html=1;fontSize=12;fontStyle=0;aspect=fixed;pointerEvents=1;shape=mxgraph.aws4.transit_gateway_attachment;" vertex="1" parent="ZivhqzZswGJpU1-0bC7G-1">
          <mxGeometry x="30" y="80" width="78" height="78" as="geometry" />
        </mxCell>
        <mxCell id="ZivhqzZswGJpU1-0bC7G-15" style="edgeStyle=orthogonalEdgeStyle;rounded=0;orthogonalLoop=1;jettySize=auto;html=1;strokeColor=#b85450;fillColor=#f8cecc;" edge="1" parent="ZivhqzZswGJpU1-0bC7G-1" source="ZivhqzZswGJpU1-0bC7G-16" target="ZivhqzZswGJpU1-0bC7G-12">
          <mxGeometry relative="1" as="geometry" />
        </mxCell>
        <mxCell id="ZivhqzZswGJpU1-0bC7G-16" value="&lt;div&gt;Spoke&lt;/div&gt;&lt;div&gt;transit gateway&lt;/div&gt;&lt;div&gt;attachment&lt;/div&gt;" style="sketch=0;outlineConnect=0;fontColor=#232F3E;gradientColor=none;fillColor=#8C4FFF;strokeColor=none;dashed=0;verticalLabelPosition=bottom;verticalAlign=top;align=center;html=1;fontSize=12;fontStyle=0;aspect=fixed;pointerEvents=1;shape=mxgraph.aws4.transit_gateway_attachment;" vertex="1" parent="ZivhqzZswGJpU1-0bC7G-1">
          <mxGeometry x="30" y="220" width="78" height="78" as="geometry" />
        </mxCell>
        <mxCell id="ZivhqzZswGJpU1-0bC7G-17" style="edgeStyle=orthogonalEdgeStyle;rounded=0;orthogonalLoop=1;jettySize=auto;html=1;fillColor=#f8cecc;strokeColor=#b85450;" edge="1" parent="ZivhqzZswGJpU1-0bC7G-1" source="ZivhqzZswGJpU1-0bC7G-18" target="ZivhqzZswGJpU1-0bC7G-10">
          <mxGeometry relative="1" as="geometry" />
        </mxCell>
        <mxCell id="ZivhqzZswGJpU1-0bC7G-18" value="&lt;div&gt;Spoke&lt;/div&gt;&lt;div&gt;transit gateway&lt;/div&gt;&lt;div&gt;attachment&lt;/div&gt;" style="sketch=0;outlineConnect=0;fontColor=#232F3E;gradientColor=none;fillColor=#8C4FFF;strokeColor=none;dashed=0;verticalLabelPosition=bottom;verticalAlign=top;align=center;html=1;fontSize=12;fontStyle=0;aspect=fixed;pointerEvents=1;shape=mxgraph.aws4.transit_gateway_attachment;" vertex="1" parent="ZivhqzZswGJpU1-0bC7G-1">
          <mxGeometry x="30" y="359" width="78" height="78" as="geometry" />
        </mxCell>
        <mxCell id="ZivhqzZswGJpU1-0bC7G-19" style="edgeStyle=orthogonalEdgeStyle;rounded=0;orthogonalLoop=1;jettySize=auto;html=1;curved=1;fillColor=#fff2cc;strokeColor=#d6b656;" edge="1" parent="ZivhqzZswGJpU1-0bC7G-1" source="ZivhqzZswGJpU1-0bC7G-20" target="ZivhqzZswGJpU1-0bC7G-6">
          <mxGeometry relative="1" as="geometry">
            <Array as="points">
              <mxPoint x="360" y="259" />
              <mxPoint x="360" y="548" />
            </Array>
          </mxGeometry>
        </mxCell>
        <mxCell id="ZivhqzZswGJpU1-0bC7G-20" value="&lt;div&gt;Hub&lt;/div&gt;&lt;div&gt;transit gateway&lt;/div&gt;&lt;div&gt;attachment&lt;/div&gt;" style="sketch=0;outlineConnect=0;fontColor=#232F3E;gradientColor=none;fillColor=#8C4FFF;strokeColor=none;dashed=0;verticalLabelPosition=bottom;verticalAlign=top;align=center;html=1;fontSize=12;fontStyle=0;aspect=fixed;pointerEvents=1;shape=mxgraph.aws4.transit_gateway_attachment;" vertex="1" parent="ZivhqzZswGJpU1-0bC7G-1">
          <mxGeometry x="390" y="220" width="78" height="78" as="geometry" />
        </mxCell>
        <mxCell id="ZivhqzZswGJpU1-0bC7G-21" value="Hub transit gateway" style="text;html=1;align=center;verticalAlign=middle;resizable=0;points=[];autosize=1;strokeColor=none;fillColor=none;" vertex="1" parent="ZivhqzZswGJpU1-0bC7G-1">
          <mxGeometry x="174" width="130" height="30" as="geometry" />
        </mxCell>
        <mxCell id="ZivhqzZswGJpU1-0bC7G-22" value="Legend" style="shape=table;startSize=30;container=1;collapsible=0;childLayout=tableLayout;fontSize=16;align=left;verticalAlign=top;fillColor=none;strokeColor=none;fontColor=#4D4D4D;fontStyle=1;spacingLeft=6;spacing=0;resizable=0;" vertex="1" parent="ZivhqzZswGJpU1-0bC7G-1">
          <mxGeometry x="360" width="161" height="90" as="geometry" />
        </mxCell>
        <mxCell id="ZivhqzZswGJpU1-0bC7G-23" value="" style="shape=tableRow;horizontal=0;startSize=0;swimlaneHead=0;swimlaneBody=0;strokeColor=inherit;top=0;left=0;bottom=0;right=0;collapsible=0;dropTarget=0;fillColor=none;points=[[0,0.5],[1,0.5]];portConstraint=eastwest;fontSize=12;" vertex="1" parent="ZivhqzZswGJpU1-0bC7G-22">
          <mxGeometry y="30" width="161" height="30" as="geometry" />
        </mxCell>
        <mxCell id="ZivhqzZswGJpU1-0bC7G-24" value="Traffic from spokes to hub" style="shape=partialRectangle;html=1;whiteSpace=wrap;connectable=0;strokeColor=#b85450;overflow=hidden;fillColor=#f8cecc;top=0;left=0;bottom=0;right=0;pointerEvents=1;fontSize=12;align=left;spacingLeft=10;spacingRight=4;" vertex="1" parent="ZivhqzZswGJpU1-0bC7G-23">
          <mxGeometry width="161" height="30" as="geometry">
            <mxRectangle width="161" height="30" as="alternateBounds" />
          </mxGeometry>
        </mxCell>
        <mxCell id="ZivhqzZswGJpU1-0bC7G-25" value="" style="shape=tableRow;horizontal=0;startSize=0;swimlaneHead=0;swimlaneBody=0;strokeColor=inherit;top=0;left=0;bottom=0;right=0;collapsible=0;dropTarget=0;fillColor=none;points=[[0,0.5],[1,0.5]];portConstraint=eastwest;fontSize=12;" vertex="1" parent="ZivhqzZswGJpU1-0bC7G-22">
          <mxGeometry y="60" width="161" height="30" as="geometry" />
        </mxCell>
        <mxCell id="ZivhqzZswGJpU1-0bC7G-26" value="Traffic from hub to spokes" style="shape=partialRectangle;html=1;whiteSpace=wrap;connectable=0;strokeColor=#d6b656;overflow=hidden;fillColor=#fff2cc;top=0;left=0;bottom=0;right=0;pointerEvents=1;fontSize=12;align=left;spacingLeft=10;spacingRight=4;" vertex="1" parent="ZivhqzZswGJpU1-0bC7G-25">
          <mxGeometry width="161" height="30" as="geometry">
            <mxRectangle width="161" height="30" as="alternateBounds" />
          </mxGeometry>
        </mxCell>
        <mxCell id="ZivhqzZswGJpU1-0bC7G-27" value="Hub VPC" style="sketch=0;points=[[0,0,0],[0.25,0,0],[0.5,0,0],[0.75,0,0],[1,0,0],[0,1,0],[0.25,1,0],[0.5,1,0],[0.75,1,0],[1,1,0],[0,0.25,0],[0,0.5,0],[0,0.75,0],[1,0.25,0],[1,0.5,0],[1,0.75,0]];outlineConnect=0;fontColor=#232F3E;fillColor=#8C4FFF;strokeColor=#ffffff;dashed=0;verticalLabelPosition=bottom;verticalAlign=top;align=center;html=1;fontSize=12;fontStyle=0;aspect=fixed;shape=mxgraph.aws4.resourceIcon;resIcon=mxgraph.aws4.vpc;" vertex="1" parent="1">
          <mxGeometry x="740" y="300" width="78" height="78" as="geometry" />
        </mxCell>
        <mxCell id="ZivhqzZswGJpU1-0bC7G-28" value="&lt;div&gt;Spoke VPC&lt;/div&gt;&lt;div&gt;(172.16.0.0/12)&lt;/div&gt;" style="sketch=0;points=[[0,0,0],[0.25,0,0],[0.5,0,0],[0.75,0,0],[1,0,0],[0,1,0],[0.25,1,0],[0.5,1,0],[0.75,1,0],[1,1,0],[0,0.25,0],[0,0.5,0],[0,0.75,0],[1,0.25,0],[1,0.5,0],[1,0.75,0]];outlineConnect=0;fontColor=#232F3E;fillColor=#8C4FFF;strokeColor=#ffffff;dashed=0;verticalLabelPosition=bottom;verticalAlign=top;align=center;html=1;fontSize=12;fontStyle=0;aspect=fixed;shape=mxgraph.aws4.resourceIcon;resIcon=mxgraph.aws4.vpc;" vertex="1" parent="1">
          <mxGeometry x="10" y="300" width="78" height="78" as="geometry" />
        </mxCell>
      </root>
    </mxGraphModel>
  </diagram>
</mxfile>
